<svg xmlns="http://www.w3.org/2000/svg" viewBox="0 0 320 64" role="img" aria-label="CasinoIndexCA">
  <rect x="2" y="4" width="56" height="56" rx="15" fill="#d11f2d"/>
  <svg x="10" y="12" width="40" height="40" viewBox="80 40 420 440" preserveAspectRatio="xMidYMid meet">
    <path fill="#ffffff" d="M383.8 351.7c2.5-2.5 105.2-92.4 105.2-92.4l-17.5-7.5c-10-4.9-7.4-11.5-5-17.4l20-59.9-56.5 12.5c-5 1.2-8.4-2.5-9.9-7.4l-7.5-24.9-45 50.4c-6.2 7.5-18.7 7.5-14.9-10l19.9-105.6-27.4 14.9c-7.5 5-15 0-17.4-7.5l-30-59.9-30 59.9c-2.5 7.5-10 12.5-17.5 7.5l-27.4-14.9 19.9 105.6c3.7 17.5-8.7 17.5-14.9 10l-45-50.4-7.5 24.9c-1.5 5-5 8.7-9.9 7.4L96.8 166.6l20 59.9c2.5 6 5 12.5-5 17.4l-17.5 7.5s102.6 89.9 105.2 92.4c5 5 10 7.5 5 22.4l-10 32.4c37.4-4.9 72.4-9.9 109.8-14.9 3.7 0 10 5 10 10l-5 112.3h37.5l-5-112.3c0-5 6.2-10 10-10 37.4 5 72.4 10 109.8 14.9l-10-32.4c-5-14.9 0-17.4 5-22.4z"/>
  </svg>
  <text x="72" y="41" font-family="'Space Grotesk',Arial,sans-serif" font-weight="700" font-size="26" letter-spacing="-0.6" fill="#0b1220">CasinoIndex<tspan fill="#d11f2d">CA</tspan></text>
</svg>
